<?xml version="1.0" encoding="utf-8"?>
<!-- Generator: Adobe Illustrator 17.1.0, SVG Export Plug-In . SVG Version: 6.00 Build 0)  -->
<!DOCTYPE svg PUBLIC "-//W3C//DTD SVG 1.1//EN" "http://www.w3.org/Graphics/SVG/1.1/DTD/svg11.dtd">
<svg version="1.1" id="Layer_1" xmlns="http://www.w3.org/2000/svg" xmlns:xlink="http://www.w3.org/1999/xlink" x="0px" y="0px"
	 viewBox="0 0 329.5 45" enable-background="new 0 0 329.5 45" xml:space="preserve">
<path fill="#FFFFFF" d="M34.8,11.2H22.8V42H13V11.2H1.1V3.8h33.7C34.8,3.8,34.8,11.2,34.8,11.2z"/>
<path fill="#FFFFFF" d="M64.3,29.3H43.2c0.1,2.3,1,4,2.6,5.2c1.6,1.2,3.9,1.8,7,1.8c1.9,0,3.8-0.3,5.7-1c1.8-0.7,3.3-1.4,4.3-2.3h1
	v7.4c-2.1,0.8-4,1.4-5.9,1.8c-1.8,0.4-3.9,0.6-6.1,0.6c-5.8,0-10.2-1.3-13.3-3.9c-3.1-2.6-4.6-6.3-4.6-11.1c0-4.7,1.5-8.5,4.4-11.3
	s6.9-4.2,12-4.2c4.7,0,8.2,1.2,10.6,3.5c2.4,2.4,3.5,5.8,3.5,10.2L64.3,29.3L64.3,29.3z M55.1,23.9c-0.1-1.9-0.5-3.4-1.4-4.3
	c-0.9-1-2.3-1.5-4.2-1.5c-1.8,0-3.2,0.5-4.4,1.4c-1.1,0.9-1.8,2.4-1.9,4.4C43.1,23.9,55.1,23.9,55.1,23.9z"/>
<path fill="#FFFFFF" d="M85.8,42.7c-2.5,0-4.8-0.3-6.9-0.9c-2.1-0.6-3.9-1.5-5.4-2.8c-1.5-1.2-2.7-2.8-3.5-4.7
	c-0.8-1.9-1.3-4.1-1.3-6.7c0-2.7,0.4-5,1.3-7c0.9-1.9,2.1-3.6,3.8-4.8c1.6-1.2,3.3-2.1,5.4-2.7c2-0.6,4.1-0.8,6.3-0.8
	c2,0,3.8,0.2,5.4,0.6c1.7,0.4,3.2,1,4.6,1.7v7.9h-1.3c-0.4-0.3-0.8-0.7-1.3-1.1c-0.5-0.4-1.1-0.8-1.9-1.2c-0.7-0.4-1.5-0.7-2.3-0.9
	C88,19.1,87,19,85.9,19c-2.5,0-4.3,0.8-5.7,2.3c-1.3,1.6-2,3.7-2,6.4c0,2.8,0.7,4.9,2,6.3c1.4,1.4,3.3,2.2,5.8,2.2
	c1.2,0,2.2-0.1,3.1-0.4c0.9-0.3,1.7-0.6,2.3-0.9c0.6-0.3,1.1-0.7,1.5-1.1c0.4-0.4,0.9-0.7,1.2-1.1h1.3v7.9c-1.5,0.7-3,1.2-4.5,1.6
	C89.4,42.5,87.7,42.7,85.8,42.7L85.8,42.7z"/>
<path fill="#FFFFFF" d="M130.6,42h-9.3V27.7c0-1.2-0.1-2.3-0.2-3.5c-0.1-1.2-0.3-2-0.6-2.6c-0.3-0.6-0.8-1.1-1.5-1.4
	c-0.7-0.3-1.6-0.4-2.8-0.4c-0.8,0-1.7,0.1-2.5,0.4c-0.9,0.3-1.8,0.7-2.8,1.3V42h-9.3V2.1h9.3v14.3c1.6-1.3,3.2-2.3,4.7-2.9
	c1.5-0.7,3.2-1,5-1c3.1,0,5.5,0.9,7.3,2.7c1.8,1.8,2.6,4.5,2.6,8.1V42z"/>
<path fill="#FFFFFF" d="M138.2,41.2v-7.5h2.9l0,0.5c0.1,0.9,0.1,1.5,0.1,2c0,1.4,0.6,2.4,1.8,3.1c1.9,1.2,4.1,1.7,6.4,1.7
	c2.4,0,4.3-0.7,5.7-2c1.4-1.3,2.1-3.1,2.1-5.5c0-2-0.4-3.5-1.3-4.7c-0.9-1.2-2.6-2.4-5.1-3.8l-2.9-1.6c-6.2-3.4-9.3-7-9.3-11
	c0-3,1.1-5.5,3.4-7.4c2.2-2,5.1-2.9,8.5-2.9c1.5,0,3.1,0.1,4.8,0.4c1.7,0.3,3.6,0.7,5.5,1.3v6.9h-3l0-0.4c-0.1-0.9-0.1-1.6-0.1-2.1
	c0-1.5-0.6-2.5-1.7-3.2c-1.1-0.7-2.8-1-5.2-1c-2,0-3.6,0.6-4.8,1.8c-1.2,1.2-1.8,2.8-1.8,4.9c0,1.7,0.4,3.1,1.3,4.2
	c0.8,1.1,2.4,2.3,4.6,3.5l2.9,1.6c4,2.2,6.7,4.1,8.1,5.7c1.4,1.6,2.1,3.6,2.1,6.1c0,3.2-1.3,5.9-3.8,8.1c-2.5,2.1-5.7,3.2-9.4,3.2
	c-2.2,0-4.3-0.1-6.2-0.4C141.6,42.2,139.8,41.8,138.2,41.2L138.2,41.2z"/>
<path fill="#FFFFFF" d="M189.1,41c-2.9,1.1-5.7,1.6-8.4,1.6c-4.4,0-7.9-1.4-10.6-4.2c-2.7-2.8-4.1-6.4-4.1-10.9
	c0-4.5,1.3-8,3.9-10.7c2.6-2.7,6.1-4,10.4-4c2.2,0,5.1,0.4,8.7,1.3v6.8h-3.4l0-0.5c0-3.9-1.8-5.9-5.4-5.9c-2.6,0-4.7,1.1-6.3,3.4
	c-1.6,2.3-2.3,5.3-2.3,9.2c0,4,0.9,7.1,2.8,9.4s4.3,3.4,7.5,3.4c2.7,0,5.1-0.4,7.2-1.3L189.1,41L189.1,41z"/>
<path fill="#FFFFFF" d="M201.8,18.9c1.4-2,3-3.5,4.8-4.5c1.8-1,3.8-1.5,6-1.5c2.6,0,4.6,0.8,6.1,2.4c1.5,1.6,2.2,3.8,2.2,6.6v13.3
	c0.1,2.6,0.3,4.1,0.6,4.4c0.3,0.3,1.6,0.6,3.9,0.7l0.5,0V42h-15.6v-1.6l0.5,0c2.3-0.2,3.7-0.4,4-0.7s0.5-1.8,0.6-4.4V22.7
	c0-2.4-0.3-4.2-1-5.1c-0.7-1-1.9-1.4-3.6-1.4c-1.2,0-2.6,0.4-4.1,1.1c-1.5,0.7-3.1,1.8-4.9,3.3v14.6c0,2.4,0.2,3.8,0.6,4.2
	c0.4,0.5,1.7,0.8,4,0.9l0.5,0V42h-15.6v-1.6l0.5,0c2.2-0.1,3.5-0.4,3.9-0.9c0.4-0.5,0.6-1.9,0.6-4.2V7.4c0-2.4-0.2-3.8-0.6-4.2
	c-0.4-0.5-1.7-0.8-3.9-0.9l-0.5,0V0.6h10.5L201.8,18.9L201.8,18.9z"/>
<path fill="#FFFFFF" d="M241.2,42.6c-4.4,0-7.9-1.3-10.4-4c-2.6-2.7-3.8-6.3-3.8-10.9c0-4.6,1.3-8.2,3.8-10.9c2.5-2.7,6-4,10.4-4
	c4.4,0,7.9,1.3,10.4,4c2.5,2.7,3.8,6.3,3.8,10.9c0,4.6-1.3,8.2-3.8,10.9C249.1,41.3,245.6,42.6,241.2,42.6L241.2,42.6z M241.2,41
	c2.4,0,4.5-1.3,6.1-3.8c1.6-2.5,2.4-5.7,2.4-9.5c0-3.8-0.8-7-2.4-9.5c-1.6-2.5-3.7-3.8-6.1-3.8c-2.4,0-4.4,1.3-6.1,3.8
	c-1.6,2.5-2.4,5.7-2.4,9.5c0,3.8,0.8,7,2.4,9.5C236.7,39.8,238.8,41,241.2,41L241.2,41z"/>
<path fill="#FFFFFF" d="M266.5,0.6v34.6c0,2.4,0.2,3.8,0.6,4.2c0.4,0.5,1.7,0.8,4,0.9l0.5,0V42H256v-1.6l0.5,0
	c2.2-0.1,3.5-0.4,3.9-0.9c0.4-0.5,0.6-1.9,0.6-4.2V7.4c0-2.4-0.2-3.8-0.6-4.2c-0.4-0.5-1.7-0.8-3.9-0.9l-0.5,0V0.6
	C256,0.6,266.5,0.6,266.5,0.6z"/>
<path fill="#FFFFFF" d="M293.2,38.1c-3.2,3-6.4,4.5-9.6,4.5c-2.5,0-4.6-0.8-6.3-2.3c-1.7-1.5-2.5-3.4-2.5-5.8c0-2.7,1.1-4.9,3.3-6.6
	c2.5-1.9,6.8-2.9,12.8-2.9h1.1v-3.5c0-4.5-1.8-6.7-5.4-6.7c-1.7,0-3.2,0.5-4.4,1.5c-0.8,0.6-1.2,1.8-1.4,3.7l0,0.5H277v-5.2
	c3.8-1.6,7.4-2.4,10.6-2.4c6.5,0,9.7,2.8,9.7,8.5v12.7c0,2.3,0.2,3.9,0.6,4.8c0.4,0.9,1.1,1.4,2.2,1.4c0.4,0,0.9-0.1,1.5-0.2
	l0.2,1.9c-1.3,0.4-2.5,0.7-3.5,0.7C295.6,42.6,293.9,41.1,293.2,38.1L293.2,38.1z M292,37.5V26.7h-1.3c-3.2,0-5.7,0.6-7.5,1.9
	c-1.8,1.3-2.7,3-2.7,5.2c0,1.6,0.6,3,1.7,4.1c1.1,1.1,2.5,1.6,4.2,1.6C288,39.6,289.8,38.9,292,37.5L292,37.5z"/>
<path fill="#FFFFFF" d="M315.6,21.3v14c0,2.4,0.2,3.8,0.6,4.2c0.4,0.5,1.7,0.8,4,0.9l1.2,0V42h-16.3v-1.6l0.5,0
	c2.2-0.1,3.5-0.4,3.9-0.9c0.4-0.5,0.6-1.9,0.6-4.2V20.3c0-2.4-0.2-3.8-0.6-4.2c-0.4-0.5-1.7-0.8-3.9-0.9l-0.5,0v-1.6h10.5v5.3
	c2.5-4,5.7-6,9.7-6c0.6,0,1.2,0.1,1.8,0.3v7.8h-3l0-0.5c-0.2-1.6-0.4-2.6-0.5-2.9c-0.2-0.3-0.6-0.5-1.3-0.5
	C319.6,17.1,317.4,18.5,315.6,21.3L315.6,21.3z"/>
</svg>
